#N canvas 1 216 1278 492 10;
#X obj 26 216 midiin;
#X obj 22 286 print;
#X obj 165 321 ctlout 1 1;
#X obj 165 179 vsl 15 128 0 127 0 0 empty empty empty 0 -9 0 10 -262144
-1 -1 2906 1;
#X text 161 340 Output Fade;
#X floatatom 110 143 5 0 0 0 - - -, f 5;
#X obj 194 292 tgl 15 0 empty empty empty 17 7 0 10 -262144 -1 -1 0
64;
#X obj 194 268 metro 100;
#X obj 194 247 tgl 15 0 empty empty empty 17 7 0 10 -262144 -1 -1 0
1;
#X floatatom 245 247 5 0 0 0 - - -, f 5;
#X msg 204 162 64;
#X obj 333 53 vsl 15 128 0 127 0 0 empty empty empty 0 -9 0 10 -262144
-1 -1 0 1;
#X floatatom 291 191 5 0 0 0 - - -, f 5;
#X msg 327 -15 64;
#X obj 24 250 pack f f;
#X obj 331 195 ctlout 11 1;
#X text 327 214 Video Fader;
#X obj 954 187 ctlout 3 1;
#X obj 954 158 tgl 15 0 empty empty empty 17 7 0 10 -262144 -1 -1 0
127;
#X text 950 206 Transform A;
#X obj 966 57 metro 100;
#X obj 968 9 tgl 15 0 empty empty empty 17 7 0 10 -262144 -1 -1 0 1
;
#X floatatom 1015 7 5 0 0 0 - - -, f 5;
#X obj 966 81 t b b;
#X obj 927 104 delay 100;
#X floatatom 1016 102 5 0 0 0 - - -, f 5;
#X msg 988 132 127;
#X msg 926 128 0;
#X obj 640 96 random 127;
#X obj 1088 154 tgl 15 0 empty empty empty 17 7 0 10 -262144 -1 -1
0 127;
#X obj 1100 53 metro 100;
#X obj 1102 5 tgl 15 0 empty empty empty 17 7 0 10 -262144 -1 -1 0
1;
#X floatatom 1149 3 5 0 0 0 - - -, f 5;
#X obj 1100 77 t b b;
#X obj 1061 100 delay 100;
#X floatatom 1150 98 5 0 0 0 - - -, f 5;
#X msg 1122 128 127;
#X text 1084 202 Transform B;
#X obj 1088 183 ctlout 4 1;
#X obj 483 475 ctlout 7 1;
#X text 479 494 STROBE A;
#X obj 360 436 ctlout 8 1;
#X text 356 455 NEGATIVE A;
#X text 633 499 COLORIZE A;
#X obj 637 480 ctlout 9 1;
#X obj 775 454 ctlout 10 1;
#X text 771 473 MULTI A;
#X floatatom 779 426 5 0 0 0 - - -, f 5;
#X obj 783 279 vsl 15 128 0 127 0 0 empty empty empty 0 -9 0 10 -262144
-1 -1 0 1;
#X obj 636 343 vsl 15 128 0 127 0 0 empty empty empty 0 -9 0 10 -262144
-1 -1 0 1;
#X floatatom 580 489 5 0 0 0 - - -, f 5;
#X obj 361 266 vsl 15 128 0 127 0 0 empty empty empty 0 -9 0 10 -262144
-1 -1 0 1;
#X floatatom 321 381 5 0 0 0 - - -, f 5;
#X obj 492 297 vsl 15 128 0 127 0 0 empty empty empty 0 -9 0 10 -262144
-1 -1 0 1;
#X obj 728 84 metro 120000;
#X obj 700 137 random 127;
#X obj 729 49 tgl 15 0 empty empty empty 17 7 0 10 -262144 -1 -1 0
1;
#X obj 728 105 t b b;
#X obj 786 137 random 240000;
#X obj 165 104 spigot;
#X obj 217 72 tgl 30 0 empty SHUT-UP empty 17 7 0 10 -260097 -1 -1
0 1;
#X obj 412 25 random 127;
#X obj 412 -21 r bang_1;
#X obj 412 86 spigot;
#X obj 640 161 spigot;
#X obj 165 131 clip 0 64;
#X obj 640 72 r bang_2;
#X obj 492 -205 bng 15 250 50 0 empty empty empty 17 7 0 10 -262144
-1 -1;
#X floatatom 490 -277 5 0 0 0 - - -, f 5;
#X obj 433 -47 random 127;
#X obj 300 -46 spigot;
#X obj 769 243 random 127;
#X obj 765 171 r bang_1;
#X obj 765 213 spigot;
#X obj 815 195 tgl 30 0 empty empty empty 17 7 0 10 -260097 -1 -1 0
1;
#X obj 333 -81 tgl 30 0 empty empty empty 17 7 0 10 -260097 -1 -1 0
1;
#X obj 890 275 random 100;
#X obj 890 298 < 70;
#X obj 897 328 sel 1;
#X obj 892 252 tgl 15 0 empty empty empty 17 7 0 10 -262144 -1 -1 0
1;
#X obj 662 124 tgl 30 0 empty empty empty 17 7 0 10 -260097 -1 -1 0
1;
#X floatatom 672 758 5 0 0 0 - - -, f 5;
#X obj 676 611 vsl 15 128 0 127 0 0 empty empty empty 0 -9 0 10 -262144
-1 -1 0 1;
#X obj 662 575 random 127;
#X obj 652 527 r bang_1;
#X obj 658 545 spigot;
#X obj 708 527 tgl 30 0 empty empty empty 17 7 0 10 -260097 -1 -1 0
1;
#X obj 783 607 random 100;
#X obj 783 630 < 70;
#X obj 798 668 sel 1;
#X obj 785 584 tgl 15 0 empty empty empty 17 7 0 10 -262144 -1 -1 0
1;
#X obj 668 786 ctlout 13 1;
#X text 664 805 Luminance Key B;
#X obj 859 -134 key;
#X obj 859 -111 sel 120;
#X obj 858 -67 s SHUT-UP;
#X msg 861 -87 0;
#X obj 382 -123 tgl 30 0 empty SHUT-UP empty 17 7 0 10 -260097 -1 -1
0 1;
#N canvas 67 89 500 426 LFO 0;
#X obj 239 365 outlet;
#X obj 240 217 cos;
#X obj 243 246 * 127;
#X obj 238 144 + 1;
#X obj 238 120 f 0;
#X floatatom 238 190 5 0 0 0 - - -, f 5;
#X obj 238 89 metro 1000;
#X obj 208 321 * -1;
#X obj 240 284 moses 0;
#X obj 238 167 * 0.01;
#X obj 259 41 inlet SWITCH;
#X obj 393 84 inlet SPEED;
#X connect 1 0 2 0;
#X connect 2 0 8 0;
#X connect 3 0 4 1;
#X connect 3 0 9 0;
#X connect 4 0 3 0;
#X connect 5 0 1 0;
#X connect 6 0 4 0;
#X connect 7 0 0 0;
#X connect 8 0 7 0;
#X connect 8 1 0 0;
#X connect 9 0 5 0;
#X connect 10 0 6 0;
#X connect 11 0 6 1;
#X restore 383 -71 pd LFO;
#X obj 428 -110 nbx 5 30 -1e+37 1e+37 0 0 empty empty empty 0 -8 0
25 -262144 -1 -1 0 256;
#X obj 445 45 tgl 30 0 empty SHUT-UP empty 17 7 0 10 -260097 -1 -1
0 1;
#X obj 222 -14 < 70;
#X obj 221 -43 spigot;
#X obj 257 -73 tgl 30 0 empty SHUT-UP empty 17 7 0 10 -260097 -1 -1
0 1;
#X obj 226 11 * 127;
#X floatatom 275 -7 5 0 0 0 - - -, f 5;
#X floatatom 164 7 5 0 0 0 - - -, f 5;
#X floatatom 169 -34 5 0 0 0 - - -, f 5;
#X floatatom 203 -116 5 0 0 0 - - -, f 5;
#N canvas 379 78 792 543 S_IN 1;
#X obj 115 -16 adc~ 1 2 3 4;
#X obj 43 166 env~;
#X obj 46 281 vsl 15 128 0 127 0 0 empty empty empty 0 -9 0 10 -262144
-1 -1 5530 1;
#X obj 41 117 hip~ 150;
#X obj 43 142 lop~ 10000;
#X obj 77 230 * 2;
#X obj 77 251 clip 0 127;
#X obj 293 367 s sig_1;
#X obj 79 205 - 20;
#X floatatom 129 174 5 0 0 0 - - -, f 5;
#X floatatom 151 214 5 0 0 0 - - -, f 5;
#X obj 164 22 +~;
#X obj 164 43 /~ 4;
#X obj 229 228 env~;
#X obj 245 334 vsl 15 128 0 127 0 0 empty empty empty 0 -9 0 10 -262144
-1 -1 0 1;
#X obj 178 110 hip~ 150;
#X obj 273 279 * 2;
#X obj 276 304 clip 0 127;
#X obj 244 250 - 20;
#X obj 329 265 expr 127 - $f1;
#X obj 181 83 hip~ 150;
#X obj 180 135 lop~ 15000;
#X obj 199 159 lop~ 15000;
#X floatatom 267 70 5 0 0 0 - - -, f 5;
#X floatatom 272 130 5 0 0 0 - - -, f 5;
#X obj 371 135 lop~ 300;
#X obj 390 159 lop~ 300;
#X obj 404 202 env~;
#X obj 410 334 vsl 15 128 0 127 0 0 empty empty empty 0 -9 0 10 -262144
-1 -1 6133 1;
#X obj 446 278 * 2;
#X obj 446 299 clip 0 127;
#X obj 448 253 - 20;
#X floatatom 479 231 5 0 0 0 - - -, f 5;
#X floatatom 485 265 5 0 0 0 - - -, f 5;
#X obj 468 346 > 65;
#X obj 500 391 s bang_1;
#X obj 446 415 bng 15 250 50 0 empty empty empty 17 7 0 10 -262144
-1 -1;
#X obj 372 83 hip~ 50;
#X obj 369 110 hip~ 50;
#X obj 588 210 env~;
#X obj 594 342 vsl 15 128 0 127 0 0 empty empty empty 0 -9 0 10 -262144
-1 -1 617 1;
#X obj 630 286 * 2;
#X obj 630 307 clip 0 127;
#X obj 632 261 - 20;
#X floatatom 663 239 5 0 0 0 - - -, f 5;
#X floatatom 669 273 5 0 0 0 - - -, f 5;
#X obj 652 354 > 65;
#X obj 652 375 sel 1;
#X obj 630 423 bng 15 250 50 0 empty empty empty 17 7 0 10 -262144
-1 -1;
#X obj 652 395 s bang_2;
#X obj 556 91 hip~ 10000;
#X obj 553 118 hip~ 10000;
#X obj 555 143 hip~ 10000;
#X obj 574 167 hip~ 10000;
#X floatatom 299 191 5 0 0 0 - - -, f 5;
#X floatatom 321 231 5 0 0 0 - - -, f 5;
#X floatatom 508 343 5 0 0 0 - - -, f 5;
#X obj 468 369 sel 1;
#X floatatom 566 8 5 0 0 0 - - -, f 5;
#X floatatom 772 10 5 0 0 0 - - -, f 5;
#X text 565 26 pitch;
#X text 749 29 envelope;
#X obj 566 -18 sigmund~ -hop 4096 pitch env;
#X obj 644 72 moses 0;
#X obj 688 99 s pitch;
#X obj 73 304 s BASS;
#X connect 0 0 11 0;
#X connect 0 1 11 0;
#X connect 0 2 11 1;
#X connect 0 3 11 1;
#X connect 1 0 8 0;
#X connect 3 0 4 0;
#X connect 4 0 1 0;
#X connect 5 0 6 0;
#X connect 6 0 2 0;
#X connect 6 0 65 0;
#X connect 8 0 5 0;
#X connect 9 0 8 1;
#X connect 10 0 5 1;
#X connect 11 0 12 0;
#X connect 12 0 20 0;
#X connect 12 0 37 0;
#X connect 12 0 50 0;
#X connect 12 0 3 0;
#X connect 12 0 62 0;
#X connect 13 0 18 0;
#X connect 15 0 21 0;
#X connect 16 0 17 0;
#X connect 17 0 14 0;
#X connect 17 0 7 0;
#X connect 18 0 16 0;
#X connect 20 0 15 0;
#X connect 21 0 22 0;
#X connect 22 0 13 0;
#X connect 23 0 20 1;
#X connect 23 0 15 1;
#X connect 24 0 21 1;
#X connect 24 0 22 1;
#X connect 25 0 26 0;
#X connect 26 0 27 0;
#X connect 27 0 31 0;
#X connect 29 0 30 0;
#X connect 30 0 34 0;
#X connect 30 0 28 0;
#X connect 31 0 29 0;
#X connect 32 0 31 1;
#X connect 33 0 29 1;
#X connect 34 0 35 0;
#X connect 34 0 57 0;
#X connect 37 0 38 0;
#X connect 38 0 25 0;
#X connect 39 0 43 0;
#X connect 41 0 42 0;
#X connect 42 0 46 0;
#X connect 42 0 40 0;
#X connect 43 0 41 0;
#X connect 44 0 43 1;
#X connect 45 0 41 1;
#X connect 46 0 47 0;
#X connect 47 0 48 0;
#X connect 47 0 49 0;
#X connect 50 0 51 0;
#X connect 51 0 52 0;
#X connect 52 0 53 0;
#X connect 53 0 39 0;
#X connect 54 0 18 1;
#X connect 55 0 16 1;
#X connect 56 0 34 1;
#X connect 57 0 36 0;
#X connect 62 0 58 0;
#X connect 62 0 63 0;
#X connect 62 1 59 0;
#X connect 63 1 64 0;
#X restore 56 357 pd S_IN;
#X obj 754 36 noteout;
#X msg 550 -14 \$1 127;
#X obj 774 -31 makenote 127 100;
#X msg 558 -206 36;
#X msg 570 -178 38;
#X msg 588 -153 40;
#X msg 606 -125 41;
#X msg 633 -183 45;
#X msg 651 -158 47;
#X msg 669 -130 48;
#X msg 621 -211 43;
#X obj 882 -286 r bang_1;
#X obj 873 -170 bng 15 250 50 0 empty empty empty 17 7 0 10 -262144
-1 -1;
#X obj 51 -8 r bang_1;
#X obj 58 84 sel 0;
#X obj 48 112 bng 15 250 50 0 empty empty empty 17 7 0 10 -262144 -1
-1;
#X msg 72 150 59;
#X msg 21 179;
#X obj 931 -267 tgl 30 0 empty SHUT-UP empty 17 7 0 10 -260097 -1 -1
0 1;
#X obj 50 54 spigot;
#X obj 87 10 tgl 30 0 empty SHUT-UP empty 17 7 0 10 -260097 -1 -1 0
1;
#X obj 412 0 sel 1;
#X obj 561 106 r pitch;
#X obj 567 204 + 0.5;
#X obj 567 225 int;
#X floatatom 682 417 5 0 0 0 - - -, f 5;
#X obj 567 179 spigot;
#X obj 599 137 tgl 30 0 empty SHUT-UP empty 17 7 0 10 -260097 -1 -1
0 1;
#X obj 534 374 moses 75;
#X obj 557 256 mod 12;
#X obj 557 277 / 12;
#X obj 271 87 expr 127 - $f1;
#X obj 557 338 * 127;
#X obj 557 298 pow 2;
#X obj 283 -132 r sig_1;
#X obj 821 -176 bng 15 250 50 0 empty empty empty 17 7 0 10 -262144
-1 -1;
#X obj 866 -201 sel 0 1 2;
#X obj 874 -224 random 3;
#X obj 882 -265 sel 1;
#X obj 900 -167 bng 15 250 50 0 empty empty empty 17 7 0 10 -262144
-1 -1;
#X obj 165 70 r sig_1;
#X msg 695 330 0;
#X obj 695 383 bng 15 250 50 0 empty empty empty 17 7 0 10 -262144
-1 -1;
#X obj 684 -350 r bang_1;
#X obj 691 -258 sel 0;
#X obj 683 -288 spigot;
#X obj 720 -332 tgl 30 0 empty SHUT-UP empty 17 7 0 10 -260097 -1 -1
0 1;
#X obj 689 -238 bng 15 250 50 0 empty empty empty 17 7 0 10 -262144
-1 -1;
#X obj 716 -235 bng 15 250 50 0 empty empty empty 17 7 0 10 -262144
-1 -1;
#X connect 0 0 14 0;
#X connect 0 1 14 1;
#X connect 3 0 2 0;
#X connect 5 0 3 0;
#X connect 6 0 2 0;
#X connect 7 0 6 0;
#X connect 8 0 7 0;
#X connect 9 0 7 1;
#X connect 10 0 3 0;
#X connect 11 0 15 0;
#X connect 13 0 11 0;
#X connect 14 0 1 0;
#X connect 18 0 17 0;
#X connect 20 0 23 0;
#X connect 21 0 20 0;
#X connect 22 0 20 1;
#X connect 23 0 24 0;
#X connect 23 1 26 0;
#X connect 24 0 27 0;
#X connect 25 0 24 1;
#X connect 26 0 18 0;
#X connect 27 0 18 0;
#X connect 28 0 64 0;
#X connect 29 0 38 0;
#X connect 30 0 33 0;
#X connect 31 0 30 0;
#X connect 32 0 30 1;
#X connect 33 0 34 0;
#X connect 33 1 36 0;
#X connect 35 0 34 1;
#X connect 36 0 29 0;
#X connect 47 0 45 0;
#X connect 48 0 47 0;
#X connect 49 0 44 0;
#X connect 49 0 50 0;
#X connect 51 0 52 0;
#X connect 51 0 41 0;
#X connect 53 0 39 0;
#X connect 54 0 57 0;
#X connect 55 0 49 0;
#X connect 56 0 54 0;
#X connect 57 0 55 0;
#X connect 57 1 58 0;
#X connect 58 0 54 1;
#X connect 59 0 65 0;
#X connect 60 0 59 1;
#X connect 61 0 63 0;
#X connect 62 0 131 0;
#X connect 63 0 11 0;
#X connect 64 0 49 0;
#X connect 65 0 3 0;
#X connect 66 0 28 0;
#X connect 69 0 11 0;
#X connect 70 0 141 0;
#X connect 71 0 48 0;
#X connect 72 0 73 0;
#X connect 73 0 76 0;
#X connect 74 0 73 1;
#X connect 75 0 70 1;
#X connect 76 0 77 0;
#X connect 77 0 78 0;
#X connect 77 0 48 0;
#X connect 79 0 76 0;
#X connect 80 0 64 1;
#X connect 81 0 91 0;
#X connect 82 0 81 0;
#X connect 83 0 82 0;
#X connect 84 0 85 0;
#X connect 85 0 87 0;
#X connect 86 0 85 1;
#X connect 87 0 88 0;
#X connect 88 0 89 0;
#X connect 88 0 82 0;
#X connect 90 0 87 0;
#X connect 93 0 94 0;
#X connect 94 0 96 0;
#X connect 96 0 95 0;
#X connect 97 0 98 0;
#X connect 98 0 11 0;
#X connect 99 0 98 1;
#X connect 100 0 63 1;
#X connect 101 0 104 0;
#X connect 101 0 106 0;
#X connect 102 0 101 0;
#X connect 102 0 107 0;
#X connect 103 0 102 1;
#X connect 104 0 11 0;
#X connect 105 0 101 1;
#X connect 111 0 110 0;
#X connect 112 0 110 0;
#X connect 112 1 110 1;
#X connect 113 0 111 0;
#X connect 114 0 111 0;
#X connect 115 0 111 0;
#X connect 116 0 111 0;
#X connect 117 0 111 0;
#X connect 118 0 111 0;
#X connect 119 0 111 0;
#X connect 120 0 111 0;
#X connect 121 0 148 0;
#X connect 122 0 114 0;
#X connect 123 0 129 0;
#X connect 124 0 10 0;
#X connect 124 1 125 0;
#X connect 125 0 126 0;
#X connect 126 0 3 0;
#X connect 128 0 147 1;
#X connect 129 0 124 0;
#X connect 130 0 129 1;
#X connect 131 0 61 0;
#X connect 132 0 136 0;
#X connect 133 0 134 0;
#X connect 134 0 139 0;
#X connect 135 0 49 0;
#X connect 136 0 133 0;
#X connect 137 0 136 1;
#X connect 139 0 140 0;
#X connect 140 0 143 0;
#X connect 141 0 11 0;
#X connect 142 0 49 0;
#X connect 143 0 142 0;
#X connect 144 0 70 0;
#X connect 144 0 102 0;
#X connect 144 0 108 0;
#X connect 145 0 113 0;
#X connect 146 0 145 0;
#X connect 146 1 122 0;
#X connect 146 2 149 0;
#X connect 147 0 146 0;
#X connect 148 1 147 0;
#X connect 149 0 115 0;
#X connect 150 0 59 0;
#X connect 151 0 49 0;
#X connect 152 0 135 0;
#X connect 153 0 155 0;
#X connect 154 0 157 0;
#X connect 154 1 158 0;
#X connect 155 0 154 0;
#X connect 156 0 155 1;
#X connect 157 0 113 0;
#X connect 158 0 115 0;
