#N canvas 67 216 1278 492 10;
#X obj 26 216 midiin;
#X obj 22 286 print;
#X obj 165 321 ctlout 1 1;
#X obj 165 179 vsl 15 128 0 127 0 0 empty empty empty 0 -9 0 10 -262144
-1 -1 6400 1;
#X text 161 340 Output Fade;
#X floatatom 110 143 5 0 0 0 - - -, f 5;
#X obj 194 292 tgl 15 0 empty empty empty 17 7 0 10 -262144 -1 -1 0
64;
#X obj 194 268 metro 100;
#X obj 194 247 tgl 15 0 empty empty empty 17 7 0 10 -262144 -1 -1 0
1;
#X floatatom 245 247 5 0 0 0 - - -, f 5;
#X msg 204 162 64;
#X obj 331 53 vsl 15 128 0 127 0 0 empty empty empty 0 -9 0 10 -262144
-1 -1 1613 1;
#X floatatom 291 191 5 0 0 0 - - -, f 5;
#X msg 327 -15 64;
#X obj 24 250 pack f f;
#X obj 331 195 ctlout 11 1;
#X text 327 214 Video Fader;
#X obj 954 187 ctlout 3 1;
#X obj 954 158 tgl 15 0 empty empty empty 17 7 0 10 -262144 -1 -1 0
127;
#X text 950 206 Transform A;
#X obj 966 57 metro 100;
#X obj 968 9 tgl 15 0 empty empty empty 17 7 0 10 -262144 -1 -1 0 1
;
#X floatatom 1015 7 5 0 0 0 - - -, f 5;
#X obj 966 81 t b b;
#X obj 927 104 delay 100;
#X floatatom 1016 102 5 0 0 0 - - -, f 5;
#X msg 988 132 127;
#X msg 926 128 0;
#X obj 640 96 random 127;
#X obj 1088 154 tgl 15 0 empty empty empty 17 7 0 10 -262144 -1 -1
0 127;
#X obj 1100 53 metro 100;
#X obj 1102 5 tgl 15 0 empty empty empty 17 7 0 10 -262144 -1 -1 0
1;
#X floatatom 1149 3 5 0 0 0 - - -, f 5;
#X obj 1100 77 t b b;
#X obj 1061 100 delay 100;
#X floatatom 1150 98 5 0 0 0 - - -, f 5;
#X msg 1122 128 127;
#X text 1084 202 Transform B;
#X obj 1088 183 ctlout 4 1;
#X obj 525 352 ctlout 7 1;
#X text 521 371 STROBE A;
#X obj 437 351 ctlout 8 1;
#X text 433 370 NEGATIVE A;
#X text 647 365 COLORIZE A;
#X obj 651 346 ctlout 9 1;
#X obj 775 454 ctlout 10 1;
#X text 771 473 MULTI A;
#X floatatom 779 426 5 0 0 0 - - -, f 5;
#X obj 783 279 vsl 15 128 0 127 0 0 empty empty empty 0 -9 0 10 -262144
-1 -1 0 1;
#X obj 654 199 vsl 15 128 0 127 0 0 empty empty empty 0 -9 0 10 -262144
-1 -1 6600 1;
#X floatatom 598 345 5 0 0 0 - - -, f 5;
#X obj 438 181 vsl 15 128 0 127 0 0 empty empty empty 0 -9 0 10 -262144
-1 -1 0 1;
#X floatatom 398 296 5 0 0 0 - - -, f 5;
#X obj 534 174 vsl 15 128 0 127 0 0 empty empty empty 0 -9 0 10 -262144
-1 -1 0 1;
#X obj 728 84 metro 120000;
#X obj 700 137 random 127;
#X obj 729 49 tgl 15 0 empty empty empty 17 7 0 10 -262144 -1 -1 0
1;
#X obj 728 105 t b b;
#X obj 786 137 random 240000;
#X obj 165 104 spigot;
#X obj 217 72 tgl 30 0 empty SHUT-UP empty 17 7 0 10 -260097 -1 -1
0 1;
#X obj 412 25 random 127;
#X obj 412 -1 r bang_1;
#X obj 412 86 spigot;
#X obj 640 161 spigot;
#X obj 165 131 clip 0 64;
#X obj 640 72 r bang_2;
#X obj 492 -205 bng 15 250 50 0 empty empty empty 17 7 0 10 -262144
-1 -1;
#X floatatom 490 -277 5 0 0 0 - - -, f 5;
#X obj 433 -47 random 127;
#X obj 300 -46 spigot;
#X obj 769 243 random 127;
#X obj 765 171 r bang_1;
#X obj 765 213 spigot;
#X obj 815 195 tgl 30 0 empty empty empty 17 7 0 10 -260097 -1 -1 0
1;
#X obj 165 70 r BASS;
#X obj 333 -81 tgl 30 0 empty empty empty 17 7 0 10 -260097 -1 -1 0
1;
#X obj 890 275 random 100;
#X obj 890 298 < 70;
#X obj 897 328 sel 1;
#X obj 892 252 tgl 15 0 empty empty empty 17 7 0 10 -262144 -1 -1 0
1;
#X obj 662 124 tgl 30 0 empty empty empty 17 7 0 10 -260097 -1 -1 0
1;
#X obj 281 -128 r sig_1;
#X floatatom 672 758 5 0 0 0 - - -, f 5;
#X obj 676 611 vsl 15 128 0 127 0 0 empty empty empty 0 -9 0 10 -262144
-1 -1 0 1;
#X obj 662 575 random 127;
#X obj 658 503 r bang_1;
#X obj 658 545 spigot;
#X obj 708 527 tgl 30 0 empty empty empty 17 7 0 10 -260097 -1 -1 0
1;
#X obj 783 607 random 100;
#X obj 783 630 < 70;
#X obj 798 668 sel 1;
#X obj 785 584 tgl 15 0 empty empty empty 17 7 0 10 -262144 -1 -1 0
1;
#X obj 668 786 ctlout 13 1;
#X text 664 805 Luminance Key B;
#X obj 859 -134 key;
#X obj 859 -111 sel 120;
#X obj 858 -67 s SHUT-UP;
#X msg 861 -87 0;
#X obj 382 -123 tgl 30 0 empty SHUT-UP empty 17 7 0 10 -260097 -1 -1
1 1;
#N canvas 67 89 500 426 LFO 0;
#X obj 239 365 outlet;
#X obj 240 217 cos;
#X obj 243 246 * 127;
#X obj 238 144 + 1;
#X obj 238 120 f 0;
#X floatatom 238 190 5 0 0 0 - - -, f 5;
#X obj 238 89 metro 1000;
#X obj 208 321 * -1;
#X obj 240 284 moses 0;
#X obj 238 167 * 0.01;
#X obj 259 41 inlet SWITCH;
#X obj 393 84 inlet SPEED;
#X connect 1 0 2 0;
#X connect 2 0 8 0;
#X connect 3 0 4 1;
#X connect 3 0 9 0;
#X connect 4 0 3 0;
#X connect 5 0 1 0;
#X connect 6 0 4 0;
#X connect 7 0 0 0;
#X connect 8 0 7 0;
#X connect 8 1 0 0;
#X connect 9 0 5 0;
#X connect 10 0 6 0;
#X connect 11 0 6 1;
#X restore 383 -71 pd LFO;
#X obj 428 -110 nbx 5 30 -1e+37 1e+37 0 0 empty empty empty 0 -8 0
25 -262144 -1 -1 54 256;
#X obj 445 45 tgl 30 0 empty SHUT-UP empty 17 7 0 10 -260097 -1 -1
0 1;
#X obj 222 -14 < 70;
#X obj 221 -43 spigot;
#X obj 257 -73 tgl 30 0 empty SHUT-UP empty 17 7 0 10 -260097 -1 -1
0 1;
#X obj 226 11 * 127;
#X floatatom 275 -7 5 0 0 0 - - -, f 5;
#X floatatom 164 7 5 0 0 0 - - -, f 5;
#X floatatom 169 -34 5 0 0 0 - - -, f 5;
#X floatatom 203 -116 5 0 0 0 - - -, f 5;
#N canvas 247 189 792 543 S_IN 0;
#X obj 115 -16 adc~ 1 2 3 4;
#X obj 43 166 env~;
#X obj 46 281 vsl 15 128 0 127 0 0 empty empty empty 0 -9 0 10 -262144
-1 -1 0 1;
#X obj 41 117 hip~ 150;
#X obj 43 142 lop~ 10000;
#X obj 77 230 * 2;
#X obj 77 251 clip 0 127;
#X obj 293 367 s sig_1;
#X obj 79 205 - 20;
#X floatatom 129 174 5 0 0 0 - - -, f 5;
#X floatatom 151 214 5 0 0 0 - - -, f 5;
#X obj 164 22 +~;
#X obj 164 43 /~ 4;
#X obj 229 228 env~;
#X obj 245 334 vsl 15 128 0 127 0 0 empty empty empty 0 -9 0 10 -262144
-1 -1 4444 1;
#X obj 178 110 hip~ 150;
#X obj 273 279 * 2;
#X obj 276 304 clip 0 127;
#X obj 244 250 - 20;
#X obj 329 265 expr 127 - $f1;
#X obj 181 83 hip~ 150;
#X obj 180 135 lop~ 15000;
#X obj 199 159 lop~ 15000;
#X floatatom 267 70 5 0 0 0 - - -, f 5;
#X floatatom 272 130 5 0 0 0 - - -, f 5;
#X obj 371 135 lop~ 300;
#X obj 390 159 lop~ 300;
#X obj 404 202 env~;
#X obj 410 334 vsl 15 128 0 127 0 0 empty empty empty 0 -9 0 10 -262144
-1 -1 5675 1;
#X obj 446 278 * 2;
#X obj 446 299 clip 0 127;
#X obj 448 253 - 20;
#X floatatom 479 231 5 0 0 0 - - -, f 5;
#X floatatom 485 265 5 0 0 0 - - -, f 5;
#X obj 468 346 > 65;
#X obj 468 367 sel 1;
#X obj 468 388 s bang_1;
#X obj 446 415 bng 15 250 50 0 empty empty empty 17 7 0 10 -262144
-1 -1;
#X obj 372 83 hip~ 50;
#X obj 369 110 hip~ 50;
#X obj 588 210 env~;
#X obj 594 342 vsl 15 128 0 127 0 0 empty empty empty 0 -9 0 10 -262144
-1 -1 881 1;
#X obj 630 286 * 2;
#X obj 630 307 clip 0 127;
#X obj 632 261 - 20;
#X floatatom 663 239 5 0 0 0 - - -, f 5;
#X floatatom 669 273 5 0 0 0 - - -, f 5;
#X obj 652 354 > 65;
#X obj 652 375 sel 1;
#X obj 630 423 bng 15 250 50 0 empty empty empty 17 7 0 10 -262144
-1 -1;
#X obj 652 395 s bang_2;
#X obj 556 91 hip~ 10000;
#X obj 553 118 hip~ 10000;
#X obj 555 143 hip~ 10000;
#X obj 574 167 hip~ 10000;
#X floatatom 299 191 5 0 0 0 - - -, f 5;
#X floatatom 321 231 5 0 0 0 - - -, f 5;
#X connect 0 0 11 0;
#X connect 0 1 11 0;
#X connect 0 2 11 1;
#X connect 0 3 11 1;
#X connect 1 0 8 0;
#X connect 3 0 4 0;
#X connect 4 0 1 0;
#X connect 5 0 6 0;
#X connect 6 0 2 0;
#X connect 8 0 5 0;
#X connect 9 0 8 1;
#X connect 10 0 5 1;
#X connect 11 0 12 0;
#X connect 12 0 20 0;
#X connect 12 0 38 0;
#X connect 12 0 51 0;
#X connect 13 0 18 0;
#X connect 15 0 21 0;
#X connect 16 0 17 0;
#X connect 17 0 14 0;
#X connect 17 0 7 0;
#X connect 18 0 16 0;
#X connect 20 0 15 0;
#X connect 21 0 22 0;
#X connect 22 0 13 0;
#X connect 23 0 20 1;
#X connect 23 0 15 1;
#X connect 24 0 21 1;
#X connect 24 0 22 1;
#X connect 25 0 26 0;
#X connect 26 0 27 0;
#X connect 27 0 31 0;
#X connect 29 0 30 0;
#X connect 30 0 34 0;
#X connect 30 0 28 0;
#X connect 31 0 29 0;
#X connect 32 0 31 1;
#X connect 33 0 29 1;
#X connect 34 0 35 0;
#X connect 35 0 36 0;
#X connect 35 0 37 0;
#X connect 38 0 39 0;
#X connect 39 0 25 0;
#X connect 40 0 44 0;
#X connect 42 0 43 0;
#X connect 43 0 47 0;
#X connect 43 0 41 0;
#X connect 44 0 42 0;
#X connect 45 0 44 1;
#X connect 46 0 42 1;
#X connect 47 0 48 0;
#X connect 48 0 49 0;
#X connect 48 0 50 0;
#X connect 51 0 52 0;
#X connect 52 0 53 0;
#X connect 53 0 54 0;
#X connect 54 0 40 0;
#X connect 55 0 18 1;
#X connect 56 0 16 1;
#X restore 56 357 pd S_IN;
#X connect 0 0 14 0;
#X connect 0 1 14 1;
#X connect 3 0 2 0;
#X connect 5 0 3 0;
#X connect 6 0 2 0;
#X connect 7 0 6 0;
#X connect 8 0 7 0;
#X connect 9 0 7 1;
#X connect 10 0 3 0;
#X connect 11 0 15 0;
#X connect 13 0 11 0;
#X connect 14 0 1 0;
#X connect 18 0 17 0;
#X connect 20 0 23 0;
#X connect 21 0 20 0;
#X connect 22 0 20 1;
#X connect 23 0 24 0;
#X connect 23 1 26 0;
#X connect 24 0 27 0;
#X connect 25 0 24 1;
#X connect 26 0 18 0;
#X connect 27 0 18 0;
#X connect 28 0 64 0;
#X connect 29 0 38 0;
#X connect 30 0 33 0;
#X connect 31 0 30 0;
#X connect 32 0 30 1;
#X connect 33 0 34 0;
#X connect 33 1 36 0;
#X connect 35 0 34 1;
#X connect 36 0 29 0;
#X connect 47 0 45 0;
#X connect 48 0 47 0;
#X connect 49 0 44 0;
#X connect 49 0 50 0;
#X connect 51 0 52 0;
#X connect 51 0 41 0;
#X connect 53 0 39 0;
#X connect 54 0 57 0;
#X connect 55 0 49 0;
#X connect 56 0 54 0;
#X connect 57 0 55 0;
#X connect 57 1 58 0;
#X connect 58 0 54 1;
#X connect 59 0 65 0;
#X connect 60 0 59 1;
#X connect 61 0 63 0;
#X connect 62 0 61 0;
#X connect 63 0 11 0;
#X connect 64 0 49 0;
#X connect 65 0 3 0;
#X connect 66 0 28 0;
#X connect 69 0 11 0;
#X connect 70 0 11 0;
#X connect 71 0 48 0;
#X connect 72 0 73 0;
#X connect 73 0 77 0;
#X connect 74 0 73 1;
#X connect 75 0 59 0;
#X connect 76 0 70 1;
#X connect 77 0 78 0;
#X connect 78 0 79 0;
#X connect 78 0 48 0;
#X connect 80 0 77 0;
#X connect 81 0 64 1;
#X connect 82 0 70 0;
#X connect 82 0 104 0;
#X connect 82 0 110 0;
#X connect 83 0 93 0;
#X connect 84 0 83 0;
#X connect 85 0 84 0;
#X connect 86 0 87 0;
#X connect 87 0 89 0;
#X connect 88 0 87 1;
#X connect 89 0 90 0;
#X connect 90 0 91 0;
#X connect 90 0 84 0;
#X connect 92 0 89 0;
#X connect 95 0 96 0;
#X connect 96 0 98 0;
#X connect 98 0 97 0;
#X connect 99 0 100 0;
#X connect 100 0 11 0;
#X connect 101 0 100 1;
#X connect 102 0 63 1;
#X connect 103 0 106 0;
#X connect 103 0 108 0;
#X connect 104 0 103 0;
#X connect 104 0 109 0;
#X connect 105 0 104 1;
#X connect 106 0 11 0;
#X connect 107 0 103 1;
