#N canvas 1 78 1278 490 10;
#X obj 26 216 midiin;
#X obj 22 286 print;
#X obj 162 171 ctlout 1 1;
#X obj 162 29 vsl 15 128 0 127 0 0 empty empty empty 0 -9 0 10 -262144
-1 -1 6400 1;
#X text 158 190 Output Fade;
#X floatatom 122 167 5 0 0 0 - - -, f 5;
#X floatatom 150 3 5 0 0 0 - - -, f 5;
#X obj 193 130 tgl 15 0 empty empty empty 17 7 0 10 -262144 -1 -1 0
64;
#X obj 188 104 metro 100;
#X obj 187 75 tgl 15 0 empty empty empty 17 7 0 10 -262144 -1 -1 0
1;
#X floatatom 234 73 5 0 0 0 - - -, f 5;
#X msg 201 12 64;
#X obj 331 53 vsl 15 128 0 127 0 0 empty empty empty 0 -9 0 10 -262144
-1 -1 11400 1;
#X floatatom 291 191 5 0 0 0 - - -, f 5;
#X floatatom 322 8 5 0 0 0 - - -, f 5;
#X msg 373 17 64;
#X obj 24 250 pack f f;
#X obj 331 195 ctlout 11 1;
#X text 327 214 Video Fader;
#X obj 954 187 ctlout 3 1;
#X obj 954 158 tgl 15 0 empty empty empty 17 7 0 10 -262144 -1 -1 0
127;
#X text 950 206 Transform A;
#X obj 966 57 metro 100;
#X obj 968 9 tgl 15 0 empty empty empty 17 7 0 10 -262144 -1 -1 0 1
;
#X floatatom 1015 7 5 0 0 0 - - -, f 5;
#X obj 966 81 t b b;
#X obj 927 104 delay 100;
#X floatatom 1016 102 5 0 0 0 - - -, f 5;
#X msg 988 132 127;
#X msg 926 128 0;
#X obj 556 96 random 127;
#X obj 1088 154 tgl 15 0 empty empty empty 17 7 0 10 -262144 -1 -1
0 127;
#X obj 1100 53 metro 100;
#X obj 1102 5 tgl 15 0 empty empty empty 17 7 0 10 -262144 -1 -1 0
1;
#X floatatom 1149 3 5 0 0 0 - - -, f 5;
#X obj 1100 77 t b b;
#X obj 1061 100 delay 100;
#X floatatom 1150 98 5 0 0 0 - - -, f 5;
#X msg 1122 128 127;
#X text 1084 202 Transform B;
#X obj 1088 183 ctlout 4 1;
#X obj 525 352 ctlout 7 1;
#X text 521 371 STROBE A;
#X obj 437 351 ctlout 8 1;
#X text 433 370 NEGATIVE A;
#X text 648 358 COLORIZE A;
#X obj 652 339 ctlout 9 1;
#X obj 741 345 ctlout 10 1;
#X text 737 364 MULTI A;
#X floatatom 745 317 5 0 0 0 - - -, f 5;
#X obj 751 183 vsl 15 128 0 127 0 0 empty empty empty 0 -9 0 10 -262144
-1 -1 0 1;
#N canvas 435 189 792 543 S_IN 1;
#X obj 115 -16 adc~ 1 2 3 4;
#X obj 43 166 env~;
#X obj 46 281 vsl 15 128 0 127 0 0 empty empty empty 0 -9 0 10 -262144
-1 -1 0 1;
#X obj 41 117 hip~ 150;
#X obj 43 142 lop~ 10000;
#X obj 77 230 * 2;
#X obj 77 251 clip 0 127;
#X obj 293 367 s sig_1;
#X obj 79 205 - 20;
#X floatatom 129 174 5 0 0 0 - - -, f 5;
#X floatatom 127 222 5 0 0 0 - - -, f 5;
#X obj 164 22 +~;
#X obj 164 43 /~ 4;
#X obj 229 228 env~;
#X obj 245 334 vsl 15 128 0 127 0 0 empty empty empty 0 -9 0 10 -262144
-1 -1 6689 1;
#X obj 178 110 hip~ 150;
#X obj 276 283 * 2;
#X obj 276 304 clip 0 127;
#X obj 278 258 - 20;
#X obj 329 265 expr 127 - $f1;
#X obj 181 83 hip~ 150;
#X obj 180 135 lop~ 15000;
#X obj 199 159 lop~ 15000;
#X floatatom 267 70 5 0 0 0 - - -, f 5;
#X floatatom 272 130 5 0 0 0 - - -, f 5;
#X obj 371 135 lop~ 300;
#X obj 390 159 lop~ 300;
#X obj 404 202 env~;
#X obj 410 334 vsl 15 128 0 127 0 0 empty empty empty 0 -9 0 10 -262144
-1 -1 6929 1;
#X obj 446 278 * 2;
#X obj 446 299 clip 0 127;
#X obj 448 253 - 20;
#X floatatom 479 231 5 0 0 0 - - -, f 5;
#X floatatom 485 265 5 0 0 0 - - -, f 5;
#X obj 468 346 > 65;
#X obj 468 367 sel 1;
#X obj 468 388 s bang_1;
#X obj 446 415 bng 15 250 50 0 empty empty empty 17 7 0 10 -262144
-1 -1;
#X obj 372 83 hip~ 50;
#X obj 369 110 hip~ 50;
#X obj 588 210 env~;
#X obj 594 342 vsl 15 128 0 127 0 0 empty empty empty 0 -9 0 10 -262144
-1 -1 7262 1;
#X obj 630 286 * 2;
#X obj 630 307 clip 0 127;
#X obj 632 261 - 20;
#X floatatom 663 239 5 0 0 0 - - -, f 5;
#X floatatom 669 273 5 0 0 0 - - -, f 5;
#X obj 652 354 > 65;
#X obj 652 375 sel 1;
#X obj 630 423 bng 15 250 50 0 empty empty empty 17 7 0 10 -262144
-1 -1;
#X obj 652 395 s bang_2;
#X obj 556 91 hip~ 10000;
#X obj 553 118 hip~ 10000;
#X obj 555 143 hip~ 10000;
#X obj 574 167 hip~ 10000;
#X connect 0 0 11 0;
#X connect 0 1 11 0;
#X connect 0 2 11 1;
#X connect 0 3 11 1;
#X connect 1 0 8 0;
#X connect 3 0 4 0;
#X connect 4 0 1 0;
#X connect 5 0 6 0;
#X connect 6 0 2 0;
#X connect 8 0 5 0;
#X connect 9 0 8 1;
#X connect 9 0 18 1;
#X connect 10 0 5 1;
#X connect 10 0 16 1;
#X connect 11 0 12 0;
#X connect 12 0 20 0;
#X connect 12 0 38 0;
#X connect 12 0 51 0;
#X connect 13 0 18 0;
#X connect 15 0 21 0;
#X connect 16 0 17 0;
#X connect 17 0 14 0;
#X connect 17 0 7 0;
#X connect 18 0 16 0;
#X connect 20 0 15 0;
#X connect 21 0 22 0;
#X connect 22 0 13 0;
#X connect 23 0 20 1;
#X connect 23 0 15 1;
#X connect 24 0 21 1;
#X connect 24 0 22 1;
#X connect 25 0 26 0;
#X connect 26 0 27 0;
#X connect 27 0 31 0;
#X connect 29 0 30 0;
#X connect 30 0 34 0;
#X connect 30 0 28 0;
#X connect 31 0 29 0;
#X connect 32 0 31 1;
#X connect 33 0 29 1;
#X connect 34 0 35 0;
#X connect 35 0 36 0;
#X connect 35 0 37 0;
#X connect 38 0 39 0;
#X connect 39 0 25 0;
#X connect 40 0 44 0;
#X connect 42 0 43 0;
#X connect 43 0 47 0;
#X connect 43 0 41 0;
#X connect 44 0 42 0;
#X connect 45 0 44 1;
#X connect 46 0 42 1;
#X connect 47 0 48 0;
#X connect 48 0 49 0;
#X connect 48 0 50 0;
#X connect 51 0 52 0;
#X connect 52 0 53 0;
#X connect 53 0 54 0;
#X connect 54 0 40 0;
#X restore 51 326 pd S_IN;
#X obj 287 -52 r sig_1;
#X obj 653 204 vsl 15 128 0 127 0 0 empty empty empty 0 -9 0 10 -262144
-1 -1 6800 1;
#X floatatom 613 319 5 0 0 0 - - -, f 5;
#X obj 438 181 vsl 15 128 0 127 0 0 empty empty empty 0 -9 0 10 -262144
-1 -1 0 1;
#X floatatom 398 296 5 0 0 0 - - -, f 5;
#X obj 530 196 vsl 15 128 0 127 0 0 empty empty empty 0 -9 0 10 -262144
-1 -1 0 1;
#X obj 658 84 metro 120000;
#X obj 630 137 random 127;
#X obj 659 49 tgl 15 0 empty empty empty 17 7 0 10 -262144 -1 -1 0
1;
#X obj 658 105 t b b;
#X obj 716 137 random 240000;
#X obj 279 -16 spigot;
#X obj 341 -31 tgl 15 0 empty empty empty 17 7 0 10 -262144 -1 -1 0
1;
#X obj 101 -43 r sig_1;
#X obj 93 -7 spigot;
#X obj 155 -22 tgl 15 0 empty empty empty 17 7 0 10 -262144 -1 -1 1
1;
#X obj 425 90 random 127;
#X obj 440 64 r bang_1;
#X obj 448 145 spigot;
#X obj 490 112 tgl 15 0 empty empty empty 17 7 0 10 -262144 -1 -1 1
1;
#X obj 550 151 spigot;
#X obj 592 118 tgl 15 0 empty empty empty 17 7 0 10 -262144 -1 -1 0
1;
#X obj 43 79 * 2;
#X obj 45 54 - 20;
#X floatatom 102 54 5 0 0 0 - - -, f 5;
#X floatatom 99 75 5 0 0 0 - - -, f 5;
#X obj 43 100 clip 0 64;
#X obj 570 68 r bang_2;
#X connect 0 0 16 0;
#X connect 0 1 16 1;
#X connect 3 0 2 0;
#X connect 3 0 5 0;
#X connect 6 0 3 0;
#X connect 7 0 2 0;
#X connect 8 0 7 0;
#X connect 9 0 8 0;
#X connect 10 0 8 1;
#X connect 11 0 3 0;
#X connect 12 0 17 0;
#X connect 14 0 12 0;
#X connect 15 0 12 0;
#X connect 16 0 1 0;
#X connect 20 0 19 0;
#X connect 22 0 25 0;
#X connect 23 0 22 0;
#X connect 24 0 22 1;
#X connect 25 0 26 0;
#X connect 25 1 28 0;
#X connect 26 0 29 0;
#X connect 27 0 26 1;
#X connect 28 0 20 0;
#X connect 29 0 20 0;
#X connect 30 0 72 0;
#X connect 31 0 40 0;
#X connect 32 0 35 0;
#X connect 33 0 32 0;
#X connect 34 0 32 1;
#X connect 35 0 36 0;
#X connect 35 1 38 0;
#X connect 37 0 36 1;
#X connect 38 0 31 0;
#X connect 49 0 47 0;
#X connect 50 0 49 0;
#X connect 52 0 63 0;
#X connect 53 0 46 0;
#X connect 53 0 54 0;
#X connect 55 0 56 0;
#X connect 55 0 43 0;
#X connect 57 0 41 0;
#X connect 58 0 61 0;
#X connect 59 0 53 0;
#X connect 60 0 58 0;
#X connect 61 0 59 0;
#X connect 61 1 62 0;
#X connect 62 0 58 1;
#X connect 63 0 12 0;
#X connect 64 0 63 1;
#X connect 65 0 66 0;
#X connect 66 0 75 0;
#X connect 67 0 66 1;
#X connect 68 0 70 0;
#X connect 69 0 68 0;
#X connect 70 0 12 0;
#X connect 71 0 70 1;
#X connect 72 0 53 0;
#X connect 73 0 72 1;
#X connect 74 0 78 0;
#X connect 75 0 74 0;
#X connect 76 0 75 1;
#X connect 77 0 74 1;
#X connect 78 0 3 0;
#X connect 79 0 30 0;
