#N canvas 67 216 1278 492 10;
#X obj 26 216 midiin;
#X obj 22 286 print;
#X obj 165 321 ctlout 1 1;
#X obj 165 179 vsl 15 128 0 127 0 0 empty empty empty 0 -9 0 10 -262144
-1 -1 6400 1;
#X text 161 340 Output Fade;
#X floatatom 110 143 5 0 0 0 - - -, f 5;
#X obj 194 292 tgl 15 0 empty empty empty 17 7 0 10 -262144 -1 -1 0
64;
#X obj 194 268 metro 100;
#X obj 194 247 tgl 15 0 empty empty empty 17 7 0 10 -262144 -1 -1 0
1;
#X floatatom 245 247 5 0 0 0 - - -, f 5;
#X msg 204 162 64;
#X obj 331 53 vsl 15 128 0 127 0 0 empty empty empty 0 -9 0 10 -262144
-1 -1 7111 1;
#X floatatom 291 191 5 0 0 0 - - -, f 5;
#X floatatom 279 0 5 0 0 0 - - -, f 5;
#X msg 373 17 64;
#X obj 24 250 pack f f;
#X obj 331 195 ctlout 11 1;
#X text 327 214 Video Fader;
#X obj 954 187 ctlout 3 1;
#X obj 954 158 tgl 15 0 empty empty empty 17 7 0 10 -262144 -1 -1 0
127;
#X text 950 206 Transform A;
#X obj 966 57 metro 100;
#X obj 968 9 tgl 15 0 empty empty empty 17 7 0 10 -262144 -1 -1 0 1
;
#X floatatom 1015 7 5 0 0 0 - - -, f 5;
#X obj 966 81 t b b;
#X obj 927 104 delay 100;
#X floatatom 1016 102 5 0 0 0 - - -, f 5;
#X msg 988 132 127;
#X msg 926 128 0;
#X obj 640 96 random 127;
#X obj 1088 154 tgl 15 0 empty empty empty 17 7 0 10 -262144 -1 -1
0 127;
#X obj 1100 53 metro 100;
#X obj 1102 5 tgl 15 0 empty empty empty 17 7 0 10 -262144 -1 -1 0
1;
#X floatatom 1149 3 5 0 0 0 - - -, f 5;
#X obj 1100 77 t b b;
#X obj 1061 100 delay 100;
#X floatatom 1150 98 5 0 0 0 - - -, f 5;
#X msg 1122 128 127;
#X text 1084 202 Transform B;
#X obj 1088 183 ctlout 4 1;
#X obj 525 352 ctlout 7 1;
#X text 521 371 STROBE A;
#X obj 437 351 ctlout 8 1;
#X text 433 370 NEGATIVE A;
#X text 647 365 COLORIZE A;
#X obj 651 346 ctlout 9 1;
#X obj 775 454 ctlout 10 1;
#X text 771 473 MULTI A;
#X floatatom 779 426 5 0 0 0 - - -, f 5;
#X obj 783 279 vsl 15 128 0 127 0 0 empty empty empty 0 -9 0 10 -262144
-1 -1 0 1;
#N canvas 519 202 792 543 S_IN 1;
#X obj 115 -16 adc~ 1 2 3 4;
#X obj 32 241 vsl 15 128 0 127 0 0 empty empty empty 0 -9 0 10 -262144
-1 -1 5589 1;
#X obj 231 341 s sig_1;
#X floatatom 89 166 5 0 0 0 - - -, f 5;
#X floatatom 110 198 5 0 0 0 - - -, f 5;
#X obj 164 22 +~;
#X obj 164 43 /~ 4;
#X obj 180 187 env~;
#X obj 183 308 vsl 15 128 0 127 0 0 empty empty empty 0 -9 0 10 -262144
-1 -1 4664 1;
#X obj 178 110 hip~ 150;
#X obj 180 258 * 2;
#X obj 181 285 clip 0 127;
#X obj 180 219 - 20;
#X obj 329 265 expr 127 - $f1;
#X obj 181 83 hip~ 150;
#X obj 180 135 lop~ 15000;
#X obj 181 162 lop~ 15000;
#X floatatom 267 70 5 0 0 0 - - -, f 5;
#X floatatom 272 130 5 0 0 0 - - -, f 5;
#X obj 371 135 lop~ 300;
#X obj 390 159 lop~ 300;
#X obj 404 202 env~;
#X obj 410 334 vsl 15 128 0 127 0 0 empty empty empty 0 -9 0 10 -262144
-1 -1 5595 1;
#X obj 446 278 * 2;
#X obj 446 299 clip 0 127;
#X obj 448 253 - 20;
#X floatatom 479 231 5 0 0 0 - - -, f 5;
#X floatatom 485 265 5 0 0 0 - - -, f 5;
#X obj 468 346 > 65;
#X obj 468 367 sel 1;
#X obj 468 388 s bang_1;
#X obj 446 415 bng 15 250 50 0 empty empty empty 17 7 0 10 -262144
-1 -1;
#X obj 372 83 hip~ 50;
#X obj 369 110 hip~ 50;
#X obj 588 210 env~;
#X obj 594 342 vsl 15 128 0 127 0 0 empty empty empty 0 -9 0 10 -262144
-1 -1 7762 1;
#X obj 630 286 * 2;
#X obj 630 307 clip 0 127;
#X obj 632 261 - 20;
#X floatatom 663 239 5 0 0 0 - - -, f 5;
#X floatatom 669 273 5 0 0 0 - - -, f 5;
#X obj 652 354 > 65;
#X obj 652 375 sel 1;
#X obj 630 423 bng 15 250 50 0 empty empty empty 17 7 0 10 -262144
-1 -1;
#X obj 652 395 s bang_2;
#X obj 556 91 hip~ 10000;
#X obj 553 118 hip~ 10000;
#X obj 555 143 hip~ 10000;
#X obj 574 167 hip~ 10000;
#X floatatom 296 190 5 0 0 0 - - -, f 5;
#X floatatom 318 230 5 0 0 0 - - -, f 5;
#X floatatom 223 198 5 0 0 0 - - -, f 5;
#X floatatom 245 238 5 0 0 0 - - -, f 5;
#N canvas 67 89 450 300 CONTAS 0;
#X obj 208 258 outlet;
#X obj 265 102 inlet;
#X obj 292 157 inlet;
#X obj 215 43 inlet~;
#X obj 192 136 env~;
#X obj 190 87 hip~ 150;
#X obj 192 112 lop~ 10000;
#X obj 188 188 * 2;
#X obj 188 209 clip 0 127;
#X obj 190 163 - 20;
#X connect 1 0 9 1;
#X connect 2 0 7 1;
#X connect 3 0 5 0;
#X connect 4 0 9 0;
#X connect 5 0 6 0;
#X connect 6 0 4 0;
#X connect 7 0 8 0;
#X connect 8 0 0 0;
#X connect 9 0 7 0;
#X restore 32 214 pd CONTAS;
#X text 28 370 BASS;
#X text 173 443 Mid-Bass;
#X text 391 468 Mid-High;
#X text 594 478 HIGH;
#X obj 73 289 s BASS;
#X obj 74 249 expr 127 - $f1;
#X connect 0 0 5 0;
#X connect 0 1 5 0;
#X connect 0 2 5 1;
#X connect 0 3 5 1;
#X connect 3 0 53 1;
#X connect 4 0 53 2;
#X connect 5 0 6 0;
#X connect 6 0 14 0;
#X connect 6 0 32 0;
#X connect 6 0 45 0;
#X connect 6 0 53 0;
#X connect 7 0 12 0;
#X connect 9 0 15 0;
#X connect 10 0 11 0;
#X connect 11 0 8 0;
#X connect 11 0 2 0;
#X connect 12 0 10 0;
#X connect 14 0 9 0;
#X connect 15 0 16 0;
#X connect 16 0 7 0;
#X connect 17 0 14 1;
#X connect 17 0 9 1;
#X connect 18 0 15 1;
#X connect 18 0 16 1;
#X connect 19 0 20 0;
#X connect 20 0 21 0;
#X connect 21 0 25 0;
#X connect 23 0 24 0;
#X connect 24 0 28 0;
#X connect 24 0 22 0;
#X connect 25 0 23 0;
#X connect 26 0 25 1;
#X connect 27 0 23 1;
#X connect 28 0 29 0;
#X connect 29 0 30 0;
#X connect 29 0 31 0;
#X connect 32 0 33 0;
#X connect 33 0 19 0;
#X connect 34 0 38 0;
#X connect 36 0 37 0;
#X connect 37 0 41 0;
#X connect 37 0 35 0;
#X connect 38 0 36 0;
#X connect 39 0 38 1;
#X connect 40 0 36 1;
#X connect 41 0 42 0;
#X connect 42 0 43 0;
#X connect 42 0 44 0;
#X connect 45 0 46 0;
#X connect 46 0 47 0;
#X connect 47 0 48 0;
#X connect 48 0 34 0;
#X connect 51 0 12 1;
#X connect 52 0 10 1;
#X connect 53 0 1 0;
#X connect 53 0 59 0;
#X connect 59 0 58 0;
#X restore 51 326 pd S_IN;
#X obj 654 199 vsl 15 128 0 127 0 0 empty empty empty 0 -9 0 10 -262144
-1 -1 10200 1;
#X floatatom 598 345 5 0 0 0 - - -, f 5;
#X obj 438 181 vsl 15 128 0 127 0 0 empty empty empty 0 -9 0 10 -262144
-1 -1 0 1;
#X floatatom 398 296 5 0 0 0 - - -, f 5;
#X obj 534 174 vsl 15 128 0 127 0 0 empty empty empty 0 -9 0 10 -262144
-1 -1 0 1;
#X obj 728 84 metro 120000;
#X obj 700 137 random 127;
#X obj 729 49 tgl 15 0 empty empty empty 17 7 0 10 -262144 -1 -1 0
1;
#X obj 728 105 t b b;
#X obj 786 137 random 240000;
#X obj 165 104 spigot;
#X obj 217 72 tgl 30 0 empty empty empty 17 7 0 10 -260097 -1 -1 0
1;
#X obj 425 90 random 127;
#X obj 440 64 r bang_1;
#X obj 448 145 spigot;
#X obj 490 112 tgl 15 0 empty empty empty 17 7 0 10 -262144 -1 -1 0
1;
#X obj 640 161 spigot;
#X obj 165 131 clip 0 64;
#X obj 640 72 r bang_2;
#X obj 570 -90 tgl 15 0 empty empty empty 17 7 0 10 -262144 -1 -1 0
1;
#X obj 448 17 cos;
#X obj 480 39 * 127;
#X obj 553 18 + 1;
#X obj 563 -35 f 0;
#X floatatom 553 64 5 0 0 0 - - -, f 5;
#X obj 553 41 * 1;
#X floatatom 599 35 5 0 0 0 - - -, f 5;
#X obj 619 -16 bng 15 250 50 0 empty empty empty 17 7 0 10 -262144
-1 -1;
#X obj 567 -66 metro 1000;
#X floatatom 608 14 5 0 0 0 - - -, f 5;
#X floatatom 649 -82 5 0 0 0 - - -, f 5;
#X obj 681 -25 random 127;
#X obj 331 -1 spigot;
#X obj 769 243 random 127;
#X obj 765 171 r bang_1;
#X obj 765 213 spigot;
#X obj 815 195 tgl 30 0 empty empty empty 17 7 0 10 -260097 -1 -1 0
1;
#X obj 165 70 r BASS;
#X obj 364 -36 tgl 30 0 empty empty empty 17 7 0 10 -260097 -1 -1 1
1;
#X obj 331 -57 r BASS;
#X obj 890 275 random 100;
#X obj 890 298 < 70;
#X obj 905 336 sel 1;
#X obj 892 252 tgl 15 0 empty empty empty 17 7 0 10 -262144 -1 -1 0
1;
#X obj 662 124 tgl 30 0 empty empty empty 17 7 0 10 -260097 -1 -1 0
1;
#X connect 0 0 15 0;
#X connect 0 1 15 1;
#X connect 3 0 2 0;
#X connect 5 0 3 0;
#X connect 6 0 2 0;
#X connect 7 0 6 0;
#X connect 8 0 7 0;
#X connect 9 0 7 1;
#X connect 10 0 3 0;
#X connect 11 0 16 0;
#X connect 13 0 11 0;
#X connect 14 0 11 0;
#X connect 15 0 1 0;
#X connect 19 0 18 0;
#X connect 21 0 24 0;
#X connect 22 0 21 0;
#X connect 23 0 21 1;
#X connect 24 0 25 0;
#X connect 24 1 27 0;
#X connect 25 0 28 0;
#X connect 26 0 25 1;
#X connect 27 0 19 0;
#X connect 28 0 19 0;
#X connect 29 0 67 0;
#X connect 30 0 39 0;
#X connect 31 0 34 0;
#X connect 32 0 31 0;
#X connect 33 0 31 1;
#X connect 34 0 35 0;
#X connect 34 1 37 0;
#X connect 36 0 35 1;
#X connect 37 0 30 0;
#X connect 48 0 46 0;
#X connect 49 0 48 0;
#X connect 51 0 45 0;
#X connect 51 0 52 0;
#X connect 53 0 54 0;
#X connect 53 0 42 0;
#X connect 55 0 40 0;
#X connect 56 0 59 0;
#X connect 57 0 51 0;
#X connect 58 0 56 0;
#X connect 59 0 57 0;
#X connect 59 1 60 0;
#X connect 60 0 56 1;
#X connect 61 0 68 0;
#X connect 62 0 61 1;
#X connect 63 0 65 0;
#X connect 64 0 63 0;
#X connect 65 0 11 0;
#X connect 66 0 65 1;
#X connect 67 0 51 0;
#X connect 68 0 3 0;
#X connect 69 0 29 0;
#X connect 70 0 79 0;
#X connect 71 0 72 0;
#X connect 72 0 11 0;
#X connect 73 0 74 1;
#X connect 73 0 76 0;
#X connect 73 0 77 0;
#X connect 74 0 73 0;
#X connect 75 0 71 0;
#X connect 76 0 75 0;
#X connect 79 0 78 0;
#X connect 79 0 74 0;
#X connect 80 0 76 1;
#X connect 81 0 79 1;
#X connect 82 0 11 0;
#X connect 83 0 11 0;
#X connect 84 0 49 0;
#X connect 85 0 86 0;
#X connect 86 0 91 0;
#X connect 87 0 86 1;
#X connect 88 0 61 0;
#X connect 89 0 83 1;
#X connect 90 0 83 0;
#X connect 91 0 92 0;
#X connect 92 0 93 0;
#X connect 92 0 49 0;
#X connect 94 0 91 0;
#X connect 95 0 67 1;
